<svg width="32" height="32" viewBox="0 0 32 32" fill="none" xmlns="http://www.w3.org/2000/svg">
    <defs>
        <filter id="filter0_bi_612_14" x="-3" y="-3" width="38" height="38"
            filterUnits="userSpaceOnUse" color-interpolation-filters="sRGB">
            <feFlood flood-opacity="0" result="BackgroundImageFix" />
            <feGaussianBlur in="BackgroundImage" stdDeviation="1.5" />
            <feComposite in2="SourceAlpha" operator="in" result="effect1_backgroundBlur_612_14" />
            <feBlend mode="normal" in="SourceGraphic" in2="effect1_backgroundBlur_612_14"
                result="shape" />
            <feColorMatrix in="SourceAlpha" type="matrix"
                values="0 0 0 0 0 0 0 0 0 0 0 0 0 0 0 0 0 0 127 0" result="hardAlpha" />
            <feOffset dy="0.5" />
            <feGaussianBlur stdDeviation="1" />
            <feComposite in2="hardAlpha" operator="arithmetic" k2="-1" k3="1" />
            <feColorMatrix type="matrix" values="0 0 0 0 1 0 0 0 0 1 0 0 0 0 1 0 0 0 0.15 0" />
            <feBlend mode="normal" in2="shape" result="effect2_innerShadow_612_14" />
        </filter>
        <linearGradient id="paint0_linear_612_14" x1="5.052" y1="5.05231" x2="30.8433" y2="11.6012"
            gradientUnits="userSpaceOnUse">
            <stop stop-color="#82E8FF" />
            <stop offset="1" stop-color="#379FFF" />
        </linearGradient>
        <linearGradient id="paint1_linear_612_14" x1="0" y1="0" x2="37.695" y2="9.57146"
            gradientUnits="userSpaceOnUse">
            <stop stop-color="#82E8FF" />
            <stop offset="1" stop-color="#379FFF" />
        </linearGradient>
        <linearGradient id="paint2_linear_612_14" x1="0" y1="0" x2="37.695" y2="9.57146"
            gradientUnits="userSpaceOnUse">
            <stop stop-color="#82E8FF" />
            <stop offset="1" stop-color="#379FFF" />
        </linearGradient>
        <linearGradient id="paint3_linear_612_14" x1="0" y1="0" x2="37.695" y2="9.57146"
            gradientUnits="userSpaceOnUse">
            <stop stop-color="#82E8FF" />
            <stop offset="1" stop-color="#379FFF" />
        </linearGradient>
        <linearGradient id="paint4_linear_612_14" x1="0" y1="0" x2="37.695" y2="9.57146"
            gradientUnits="userSpaceOnUse">
            <stop stop-color="#82E8FF" />
            <stop offset="1" stop-color="#379FFF" />
        </linearGradient>
        <linearGradient id="paint5_linear_612_14" x1="0" y1="0" x2="37.695" y2="9.57146"
            gradientUnits="userSpaceOnUse">
            <stop stop-color="#82E8FF" />
            <stop offset="1" stop-color="#379FFF" />
        </linearGradient>
        <linearGradient id="paint6_linear_612_14" x1="0" y1="0" x2="37.695" y2="9.57146"
            gradientUnits="userSpaceOnUse">
            <stop stop-color="#82E8FF" />
            <stop offset="1" stop-color="#379FFF" />
        </linearGradient>
        <linearGradient id="paint7_linear_612_14" x1="0" y1="0" x2="37.695" y2="9.57146"
            gradientUnits="userSpaceOnUse">
            <stop stop-color="#82E8FF" />
            <stop offset="1" stop-color="#379FFF" />
        </linearGradient>
        <linearGradient id="paint8_linear_612_14" x1="0" y1="0" x2="37.695" y2="9.57146"
            gradientUnits="userSpaceOnUse">
            <stop stop-color="#82E8FF" />
            <stop offset="1" stop-color="#379FFF" />
        </linearGradient>
        <linearGradient id="paint9_linear_612_14" x1="0" y1="0" x2="37.695" y2="9.57146"
            gradientUnits="userSpaceOnUse">
            <stop stop-color="#82E8FF" />
            <stop offset="1" stop-color="#379FFF" />
        </linearGradient>
        <linearGradient id="paint10_linear_612_14" x1="1" y1="1.45455" x2="32" y2="1.45455"
            gradientUnits="userSpaceOnUse">
            <stop stop-color="#7EE5FF" />
            <stop offset="1" stop-color="#41A9FF" />
        </linearGradient>
    </defs>
    <circle cx="15.9994" cy="15.9997" r="10.9474" fill="url(#paint0_linear_612_14)" />
    <g filter="url(#filter0_bi_612_14)">
        <path
            d="M0 1.68421C0 0.754047 0.754047 0 1.68421 0H6.73684C7.66701 0 8.42105 0.754047 8.42105 1.68421V6.73684C8.42105 7.66701 7.66701 8.42105 6.73684 8.42105H1.68421C0.754047 8.42105 0 7.66701 0 6.73684V1.68421Z"
            fill="#F1F1F1" fill-opacity="0.1" />
        <path
            d="M0 1.68421C0 0.754047 0.754047 0 1.68421 0H6.73684C7.66701 0 8.42105 0.754047 8.42105 1.68421V6.73684C8.42105 7.66701 7.66701 8.42105 6.73684 8.42105H1.68421C0.754047 8.42105 0 7.66701 0 6.73684V1.68421Z"
            fill="url(#paint1_linear_612_14)" fill-opacity="0.2" />
        <path
            d="M0 13.4737C0 12.5435 0.754047 11.7895 1.68421 11.7895H6.73684C7.66701 11.7895 8.42105 12.5435 8.42105 13.4737V18.5263C8.42105 19.4565 7.66701 20.2105 6.73684 20.2105H1.68421C0.754047 20.2105 0 19.4565 0 18.5263V13.4737Z"
            fill="#F1F1F1" fill-opacity="0.1" />
        <path
            d="M0 13.4737C0 12.5435 0.754047 11.7895 1.68421 11.7895H6.73684C7.66701 11.7895 8.42105 12.5435 8.42105 13.4737V18.5263C8.42105 19.4565 7.66701 20.2105 6.73684 20.2105H1.68421C0.754047 20.2105 0 19.4565 0 18.5263V13.4737Z"
            fill="url(#paint2_linear_612_14)" fill-opacity="0.2" />
        <path
            d="M0 25.2632C0 24.333 0.754047 23.5789 1.68421 23.5789H6.73684C7.66701 23.5789 8.42105 24.333 8.42105 25.2632V30.3158C8.42105 31.246 7.66701 32 6.73684 32H1.68421C0.754047 32 0 31.246 0 30.3158V25.2632Z"
            fill="#F1F1F1" fill-opacity="0.1" />
        <path
            d="M0 25.2632C0 24.333 0.754047 23.5789 1.68421 23.5789H6.73684C7.66701 23.5789 8.42105 24.333 8.42105 25.2632V30.3158C8.42105 31.246 7.66701 32 6.73684 32H1.68421C0.754047 32 0 31.246 0 30.3158V25.2632Z"
            fill="url(#paint3_linear_612_14)" fill-opacity="0.2" />
        <path
            d="M11.7895 1.68421C11.7895 0.754047 12.5435 0 13.4737 0H18.5263C19.4565 0 20.2105 0.754047 20.2105 1.68421V6.73684C20.2105 7.66701 19.4565 8.42105 18.5263 8.42105H13.4737C12.5435 8.42105 11.7895 7.66701 11.7895 6.73684V1.68421Z"
            fill="#F1F1F1" fill-opacity="0.1" />
        <path
            d="M11.7895 1.68421C11.7895 0.754047 12.5435 0 13.4737 0H18.5263C19.4565 0 20.2105 0.754047 20.2105 1.68421V6.73684C20.2105 7.66701 19.4565 8.42105 18.5263 8.42105H13.4737C12.5435 8.42105 11.7895 7.66701 11.7895 6.73684V1.68421Z"
            fill="url(#paint4_linear_612_14)" fill-opacity="0.2" />
        <path
            d="M11.7895 13.4737C11.7895 12.5435 12.5435 11.7895 13.4737 11.7895H18.5263C19.4565 11.7895 20.2105 12.5435 20.2105 13.4737V18.5263C20.2105 19.4565 19.4565 20.2105 18.5263 20.2105H13.4737C12.5435 20.2105 11.7895 19.4565 11.7895 18.5263V13.4737Z"
            fill="#F1F1F1" fill-opacity="0.1" />
        <path
            d="M11.7895 13.4737C11.7895 12.5435 12.5435 11.7895 13.4737 11.7895H18.5263C19.4565 11.7895 20.2105 12.5435 20.2105 13.4737V18.5263C20.2105 19.4565 19.4565 20.2105 18.5263 20.2105H13.4737C12.5435 20.2105 11.7895 19.4565 11.7895 18.5263V13.4737Z"
            fill="url(#paint5_linear_612_14)" fill-opacity="0.2" />
        <path
            d="M11.7895 25.2632C11.7895 24.333 12.5435 23.5789 13.4737 23.5789H18.5263C19.4565 23.5789 20.2105 24.333 20.2105 25.2632V30.3158C20.2105 31.246 19.4565 32 18.5263 32H13.4737C12.5435 32 11.7895 31.246 11.7895 30.3158V25.2632Z"
            fill="#F1F1F1" fill-opacity="0.1" />
        <path
            d="M11.7895 25.2632C11.7895 24.333 12.5435 23.5789 13.4737 23.5789H18.5263C19.4565 23.5789 20.2105 24.333 20.2105 25.2632V30.3158C20.2105 31.246 19.4565 32 18.5263 32H13.4737C12.5435 32 11.7895 31.246 11.7895 30.3158V25.2632Z"
            fill="url(#paint6_linear_612_14)" fill-opacity="0.2" />
        <path
            d="M23.5789 1.68421C23.5789 0.754047 24.333 0 25.2632 0H30.3158C31.246 0 32 0.754047 32 1.68421V6.73684C32 7.66701 31.246 8.42105 30.3158 8.42105H25.2632C24.333 8.42105 23.5789 7.66701 23.5789 6.73684V1.68421Z"
            fill="#F1F1F1" fill-opacity="0.1" />
        <path
            d="M23.5789 1.68421C23.5789 0.754047 24.333 0 25.2632 0H30.3158C31.246 0 32 0.754047 32 1.68421V6.73684C32 7.66701 31.246 8.42105 30.3158 8.42105H25.2632C24.333 8.42105 23.5789 7.66701 23.5789 6.73684V1.68421Z"
            fill="url(#paint7_linear_612_14)" fill-opacity="0.2" />
        <path
            d="M23.5789 13.4737C23.5789 12.5435 24.333 11.7895 25.2632 11.7895H30.3158C31.246 11.7895 32 12.5435 32 13.4737V18.5263C32 19.4565 31.246 20.2105 30.3158 20.2105H25.2632C24.333 20.2105 23.5789 19.4565 23.5789 18.5263V13.4737Z"
            fill="#F1F1F1" fill-opacity="0.1" />
        <path
            d="M23.5789 13.4737C23.5789 12.5435 24.333 11.7895 25.2632 11.7895H30.3158C31.246 11.7895 32 12.5435 32 13.4737V18.5263C32 19.4565 31.246 20.2105 30.3158 20.2105H25.2632C24.333 20.2105 23.5789 19.4565 23.5789 18.5263V13.4737Z"
            fill="url(#paint8_linear_612_14)" fill-opacity="0.2" />
        <path
            d="M23.5789 25.2632C23.5789 24.333 24.333 23.5789 25.2632 23.5789H30.3158C31.246 23.5789 32 24.333 32 25.2632V30.3158C32 31.246 31.246 32 30.3158 32H25.2632C24.333 32 23.5789 31.246 23.5789 30.3158V25.2632Z"
            fill="#F1F1F1" fill-opacity="0.1" />
        <path
            d="M23.5789 25.2632C23.5789 24.333 24.333 23.5789 25.2632 23.5789H30.3158C31.246 23.5789 32 24.333 32 25.2632V30.3158C32 31.246 31.246 32 30.3158 32H25.2632C24.333 32 23.5789 31.246 23.5789 30.3158V25.2632Z"
            fill="url(#paint9_linear_612_14)" fill-opacity="0.2" />
        <path
            d="M0.1 1.68421C0.1 0.809275 0.809275 0.1 1.68421 0.1H6.73684C7.61178 0.1 8.32105 0.809275 8.32105 1.68421V6.73684C8.32105 7.61178 7.61178 8.32105 6.73684 8.32105H1.68421C0.809275 8.32105 0.1 7.61178 0.1 6.73684V1.68421ZM0.1 13.4737C0.1 12.5987 0.809275 11.8895 1.68421 11.8895H6.73684C7.61178 11.8895 8.32105 12.5987 8.32105 13.4737V18.5263C8.32105 19.4013 7.61178 20.1105 6.73684 20.1105H1.68421C0.809275 20.1105 0.1 19.4013 0.1 18.5263V13.4737ZM0.1 25.2632C0.1 24.3882 0.809275 23.6789 1.68421 23.6789H6.73684C7.61178 23.6789 8.32105 24.3882 8.32105 25.2632V30.3158C8.32105 31.1907 7.61178 31.9 6.73684 31.9H1.68421C0.809275 31.9 0.1 31.1907 0.1 30.3158V25.2632ZM11.8895 1.68421C11.8895 0.809275 12.5987 0.1 13.4737 0.1H18.5263C19.4013 0.1 20.1105 0.809275 20.1105 1.68421V6.73684C20.1105 7.61178 19.4013 8.32105 18.5263 8.32105H13.4737C12.5987 8.32105 11.8895 7.61178 11.8895 6.73684V1.68421ZM11.8895 13.4737C11.8895 12.5987 12.5987 11.8895 13.4737 11.8895H18.5263C19.4013 11.8895 20.1105 12.5987 20.1105 13.4737V18.5263C20.1105 19.4013 19.4013 20.1105 18.5263 20.1105H13.4737C12.5987 20.1105 11.8895 19.4013 11.8895 18.5263V13.4737ZM11.8895 25.2632C11.8895 24.3882 12.5987 23.6789 13.4737 23.6789H18.5263C19.4013 23.6789 20.1105 24.3882 20.1105 25.2632V30.3158C20.1105 31.1907 19.4013 31.9 18.5263 31.9H13.4737C12.5987 31.9 11.8895 31.1907 11.8895 30.3158V25.2632ZM23.6789 1.68421C23.6789 0.809275 24.3882 0.1 25.2632 0.1H30.3158C31.1907 0.1 31.9 0.809275 31.9 1.68421V6.73684C31.9 7.61178 31.1907 8.32105 30.3158 8.32105H25.2632C24.3882 8.32105 23.6789 7.61178 23.6789 6.73684V1.68421ZM23.6789 13.4737C23.6789 12.5987 24.3882 11.8895 25.2632 11.8895H30.3158C31.1907 11.8895 31.9 12.5987 31.9 13.4737V18.5263C31.9 19.4013 31.1907 20.1105 30.3158 20.1105H25.2632C24.3882 20.1105 23.6789 19.4013 23.6789 18.5263V13.4737ZM23.6789 25.2632C23.6789 24.3882 24.3882 23.6789 25.2632 23.6789H30.3158C31.1907 23.6789 31.9 24.3882 31.9 25.2632V30.3158C31.9 31.1907 31.1907 31.9 30.3158 31.9H25.2632C24.3882 31.9 23.6789 31.1907 23.6789 30.3158V25.2632Z"
            stroke="url(#paint10_linear_612_14)" stroke-opacity="0.1" stroke-width="0.2" />
    </g>
</svg>
