<svg width="39" height="32" viewBox="0 0 39 32" fill="none" xmlns="http://www.w3.org/2000/svg">
    <defs>
        <filter id="filter0_bi_636_3797" x="0.900146" y="-3" width="40.1333" height="37.8779"
            filterUnits="userSpaceOnUse" color-interpolation-filters="sRGB">
            <feFlood flood-opacity="0" result="BackgroundImageFix" />
            <feGaussianBlur in="BackgroundImage" stdDeviation="1.5" />
            <feComposite in2="SourceAlpha" operator="in" result="effect1_backgroundBlur_636_3797" />
            <feBlend mode="normal" in="SourceGraphic" in2="effect1_backgroundBlur_636_3797"
                result="shape" />
            <feColorMatrix in="SourceAlpha" type="matrix"
                values="0 0 0 0 0 0 0 0 0 0 0 0 0 0 0 0 0 0 127 0" result="hardAlpha" />
            <feOffset dy="0.5" />
            <feGaussianBlur stdDeviation="1" />
            <feComposite in2="hardAlpha" operator="arithmetic" k2="-1" k3="1" />
            <feColorMatrix type="matrix" values="0 0 0 0 1 0 0 0 0 1 0 0 0 0 1 0 0 0 0.4 0" />
            <feBlend mode="normal" in2="shape" result="effect2_innerShadow_636_3797" />
        </filter>
        <linearGradient id="paint0_linear_636_3797" x1="3.64178" y1="10.774" x2="20.7863"
            y2="27.9185" gradientUnits="userSpaceOnUse">
            <stop stop-color="#BAF2B5" />
            <stop offset="1" stop-color="#26AAD4" />
        </linearGradient>
        <linearGradient id="paint1_linear_636_3797" x1="3.90015" y1="0" x2="35.0353" y2="33.2108"
            gradientUnits="userSpaceOnUse">
            <stop stop-color="#BAF2B5" />
            <stop offset="1" stop-color="#26AAD4" />
        </linearGradient>
        <linearGradient id="paint2_linear_636_3797" x1="4.96681" y1="1.45455" x2="38.0335"
            y2="1.45455" gradientUnits="userSpaceOnUse">
            <stop stop-color="#ADECB8" />
            <stop offset="1" stop-color="#2FAED3" />
        </linearGradient>
    </defs>
    <circle cx="12.4338" cy="19.5661" r="8.79206" transform="rotate(45 12.4338 19.5661)"
        fill="url(#paint0_linear_636_3797)" />
    <g filter="url(#filter0_bi_636_3797)">
        <path
            d="M20.8769 4.62745C20.9162 4.69476 21.0174 4.69476 21.0567 4.62745C25.991 -3.82967 38.0335 -0.0958959 38.0335 10.9701C38.0335 22.1491 24.0971 30.297 21.4116 31.7633C21.1317 31.9161 20.8019 31.9161 20.5221 31.7633C17.8365 30.297 3.90015 22.1491 3.90015 10.9701C3.90015 -0.0958959 15.9426 -3.82967 20.8769 4.62745Z"
            fill="#F1F1F1" fill-opacity="0.1" />
        <path
            d="M20.8769 4.62745C20.9162 4.69476 21.0174 4.69476 21.0567 4.62745C25.991 -3.82967 38.0335 -0.0958959 38.0335 10.9701C38.0335 22.1491 24.0971 30.297 21.4116 31.7633C21.1317 31.9161 20.8019 31.9161 20.5221 31.7633C17.8365 30.297 3.90015 22.1491 3.90015 10.9701C3.90015 -0.0958959 15.9426 -3.82967 20.8769 4.62745Z"
            fill="url(#paint1_linear_636_3797)" fill-opacity="0.2" />
        <path
            d="M20.7905 4.67784C20.8684 4.8113 21.0652 4.8113 21.1431 4.67784L21.0567 4.62745L21.1431 4.67784C23.5858 0.491125 27.7798 -0.672017 31.3627 0.572069C34.9466 1.81653 37.9335 5.47615 37.9335 10.9701C37.9335 16.5179 34.4741 21.3248 30.6608 24.9363C26.85 28.5454 22.7031 30.9442 21.3637 31.6755C21.1136 31.812 20.82 31.812 20.57 31.6755C19.2305 30.9442 15.0836 28.5454 11.2728 24.9363C7.4595 21.3248 4.00015 16.5179 4.00015 10.9701C4.00015 5.47615 6.98702 1.81653 10.571 0.572069C14.1538 -0.672017 18.3478 0.491125 20.7905 4.67784L20.8769 4.62745L20.7905 4.67784Z"
            stroke="url(#paint2_linear_636_3797)" stroke-opacity="0.1" stroke-width="0.2" />
    </g>
</svg>
