<svg width="32" height="32" viewBox="0 0 32 32" fill="none" xmlns="http://www.w3.org/2000/svg">
    <defs>
        <filter id="filter0_bi_637_10" x="-3" y="-3" width="38" height="38"
            filterUnits="userSpaceOnUse" color-interpolation-filters="sRGB">
            <feFlood flood-opacity="0" result="BackgroundImageFix" />
            <feGaussianBlur in="BackgroundImage" stdDeviation="1.5" />
            <feComposite in2="SourceAlpha" operator="in" result="effect1_backgroundBlur_637_10" />
            <feBlend mode="normal" in="SourceGraphic" in2="effect1_backgroundBlur_637_10"
                result="shape" />
            <feColorMatrix in="SourceAlpha" type="matrix"
                values="0 0 0 0 0 0 0 0 0 0 0 0 0 0 0 0 0 0 127 0" result="hardAlpha" />
            <feOffset dy="0.5" />
            <feGaussianBlur stdDeviation="1" />
            <feComposite in2="hardAlpha" operator="arithmetic" k2="-1" k3="1" />
            <feColorMatrix type="matrix" values="0 0 0 0 1 0 0 0 0 1 0 0 0 0 1 0 0 0 0.4 0" />
            <feBlend mode="normal" in2="shape" result="effect2_innerShadow_637_10" />
        </filter>
        <filter id="filter1_i_637_10" x="3.76392" y="2.82324" width="25.4124" height="8.97107"
            filterUnits="userSpaceOnUse" color-interpolation-filters="sRGB">
            <feFlood flood-opacity="0" result="BackgroundImageFix" />
            <feBlend mode="normal" in="SourceGraphic" in2="BackgroundImageFix" result="shape" />
            <feColorMatrix in="SourceAlpha" type="matrix"
                values="0 0 0 0 0 0 0 0 0 0 0 0 0 0 0 0 0 0 127 0" result="hardAlpha" />
            <feOffset dy="0.5" />
            <feGaussianBlur stdDeviation="0.25" />
            <feComposite in2="hardAlpha" operator="arithmetic" k2="-1" k3="1" />
            <feColorMatrix type="matrix" values="0 0 0 0 1 0 0 0 0 1 0 0 0 0 1 0 0 0 0.4 0" />
            <feBlend mode="normal" in2="shape" result="effect1_innerShadow_637_10" />
        </filter>
        <linearGradient id="paint0_linear_637_10" x1="12.1075" y1="13.7061" x2="18.4422"
            y2="22.0843" gradientUnits="userSpaceOnUse">
            <stop stop-color="#FE82DB" />
            <stop offset="1" stop-color="#68E4FF" />
        </linearGradient>
        <linearGradient id="paint1_linear_637_10" x1="1.33333" y1="6.4" x2="36.216" y2="11.2448"
            gradientUnits="userSpaceOnUse">
            <stop stop-color="#FE82DB" />
            <stop offset="1" stop-color="#68E4FF" />
        </linearGradient>
        <linearGradient id="paint2_linear_637_10" x1="1" y1="1.45455" x2="32" y2="1.45455"
            gradientUnits="userSpaceOnUse">
            <stop stop-color="#FD84DC" />
            <stop offset="1" stop-color="#7FD6FA" />
        </linearGradient>
    </defs>
    <path
        d="M13.176 23.5956C10.5406 23.5956 8.40413 21.4592 8.40413 18.8237C8.40413 16.1883 10.5406 14.0518 13.176 14.0518C15.8115 14.0518 17.9479 16.1883 17.9479 18.8237C17.9479 21.4592 15.8115 23.5956 13.176 23.5956Z"
        fill="url(#paint0_linear_637_10)" />
    <g filter="url(#filter0_bi_637_10)">
        <path
            d="M31.9227 2.57213C32.3482 1.05226 30.9477 -0.348232 29.4279 0.0773318L1.47894 7.90303C-0.206878 8.37506 -0.538932 10.6198 0.938027 11.5597L12.4766 18.9024C12.7266 19.0615 12.9385 19.2734 13.0976 19.5234L20.4403 31.062C21.3802 32.5389 23.6249 32.2069 24.097 30.5211L31.9227 2.57213Z"
            fill="#F1F1F1" fill-opacity="0.1" />
        <path
            d="M31.9227 2.57213C32.3482 1.05226 30.9477 -0.348232 29.4279 0.0773318L1.47894 7.90303C-0.206878 8.37506 -0.538932 10.6198 0.938027 11.5597L12.4766 18.9024C12.7266 19.0615 12.9385 19.2734 13.0976 19.5234L20.4403 31.062C21.3802 32.5389 23.6249 32.2069 24.097 30.5211L31.9227 2.57213Z"
            fill="url(#paint1_linear_637_10)" fill-opacity="0.2" />
        <path
            d="M29.4548 0.173628C30.8996 -0.230909 32.2309 1.10039 31.8264 2.54517L24.0007 30.4941C23.552 32.0966 21.4181 32.4123 20.5247 31.0083L13.1819 19.4697C13.015 19.2074 12.7926 18.985 12.5303 18.8181L0.991714 11.4753C-0.412273 10.5819 -0.0966251 8.44804 1.5059 7.99933L29.4548 0.173628Z"
            stroke="url(#paint2_linear_637_10)" stroke-opacity="0.1" stroke-width="0.2" />
    </g>
    <g filter="url(#filter1_i_637_10)">
        <path fill-rule="evenodd" clip-rule="evenodd"
            d="M29.1411 3.51089C29.2812 4.01144 28.9891 4.53082 28.4885 4.67098L4.9591 11.2592C4.45856 11.3994 3.93917 11.1072 3.79901 10.6067C3.65886 10.1061 3.95102 9.58673 4.45156 9.44657L27.981 2.85834C28.4815 2.71819 29.0009 3.01034 29.1411 3.51089Z"
            fill="white" fill-opacity="0.16" />
    </g>
</svg>
